<svg width="22" height="29" viewBox="0 0 22 29" fill="none" xmlns="http://www.w3.org/2000/svg">
<path d="M10.0032 0.992188C8.35822 0.992188 7.00322 2.34719 7.00322 3.99219V5.52319L6.87822 5.11719C6.40122 3.54319 4.70222 2.64019 3.12822 3.11719C1.55422 3.59419 0.651216 5.29319 1.12822 6.86719L3.72222 15.3052C3.53422 15.3792 3.33222 15.4652 3.12822 15.5852C2.29222 16.0852 1.34722 17.0972 1.06522 18.7112C0.855216 19.9062 1.08522 20.9572 1.25322 21.5232V21.5552L2.03422 24.0552C2.47544 25.4848 3.36296 26.7354 4.5667 27.6239C5.77044 28.5123 7.22711 28.9918 8.72322 28.9922H14.0032C17.8582 28.9922 21.0032 25.8472 21.0032 21.9922V11.8672C20.9952 11.8362 20.9832 11.8042 20.9722 11.7732C20.8822 10.6722 20.2142 9.64419 19.1282 9.21119C18.3742 8.91019 17.5812 8.95319 16.8782 9.24219C16.5509 8.60669 16.0082 8.10833 15.3472 7.83619C14.9725 7.68804 14.5717 7.61717 14.1689 7.62783C13.7661 7.63848 13.3696 7.73044 13.0032 7.89819V3.99219C13.0032 2.34719 11.6482 0.992188 10.0032 0.992188ZM10.0032 2.99219C10.5692 2.99219 11.0032 3.42619 11.0032 3.99219V10.5862L9.97222 13.2112C9.82717 13.5793 9.75287 13.9715 9.75322 14.3672L5.65922 14.8982L3.06522 6.27319C3.0241 6.14804 3.00856 6.01591 3.01952 5.88464C3.03047 5.75337 3.06769 5.62564 3.12898 5.50904C3.19027 5.39244 3.27436 5.28935 3.37627 5.20588C3.47818 5.12242 3.59582 5.06029 3.72222 5.02319C4.26122 4.85919 4.80822 5.17219 4.97222 5.71119L7.03422 12.5542L8.15922 12.2112H9.00322V3.99219C9.00322 3.42619 9.43722 2.99219 10.0032 2.99219ZM14.1912 9.61719C14.3192 9.61319 14.4682 9.62919 14.5972 9.68019C14.721 9.72841 14.834 9.80084 14.9295 9.89322C15.025 9.98561 15.1012 10.0961 15.1535 10.2183C15.2058 10.3404 15.2333 10.4718 15.2343 10.6046C15.2353 10.7375 15.2097 10.8693 15.1592 10.9922L14.0972 13.6482V13.6792L13.6902 14.7112C13.6712 14.7652 13.6242 14.7892 13.5972 14.8362C13.0797 14.4272 12.4436 14.1971 11.7842 14.1802C11.7962 14.1052 11.7842 14.0352 11.8162 13.9602L13.3162 10.2422C13.4722 9.84719 13.8042 9.62519 14.1912 9.61719ZM17.9712 10.9922C18.1052 10.9922 18.2452 11.0042 18.3782 11.0552C18.5615 11.1257 18.7193 11.2499 18.8308 11.4116C18.9423 11.5732 19.0024 11.7648 19.0032 11.9612V11.9922C19.0032 12.1132 18.9872 12.2462 18.9402 12.3672L17.8152 15.1482C17.7671 15.2721 17.6947 15.3852 17.6024 15.4808C17.51 15.5764 17.3996 15.6527 17.2774 15.7051C17.1552 15.7575 17.0238 15.7851 16.8909 15.7861C16.758 15.7872 16.6262 15.7617 16.5032 15.7112C15.9802 15.5002 15.7612 14.9212 15.9722 14.3982L17.0342 11.7422C17.0502 11.7022 17.0502 11.6562 17.0662 11.6172C17.1621 11.3672 17.3525 11.165 17.5962 11.0542C17.7162 11.0075 17.8446 10.9864 17.9732 10.9922H17.9712ZM11.5032 16.1482C11.6264 16.1177 11.7544 16.1123 11.8798 16.1321C12.0051 16.152 12.1252 16.1967 12.233 16.2637C12.3407 16.3307 12.4339 16.4187 12.5071 16.5223C12.5804 16.626 12.6321 16.7432 12.6592 16.8672C12.7372 17.1912 12.6942 17.3552 12.5972 17.5232C12.4992 17.6912 12.2922 17.8982 11.8472 18.0552L7.00322 19.3052C6.8576 19.344 6.72263 19.4151 6.6084 19.5134C6.49416 19.6117 6.40361 19.7345 6.34351 19.8727C6.2834 20.0109 6.25531 20.1608 6.26132 20.3114C6.26733 20.462 6.30729 20.6092 6.37822 20.7422L7.28422 22.3982C7.34757 22.5134 7.4331 22.615 7.53588 22.697C7.63865 22.7791 7.75664 22.84 7.88305 22.8762C8.00946 22.9125 8.14179 22.9234 8.27243 22.9082C8.40306 22.8931 8.52942 22.8523 8.64422 22.7882C8.75919 22.7248 8.86052 22.6394 8.94239 22.5368C9.02426 22.4341 9.08506 22.3164 9.12129 22.1902C9.15753 22.064 9.16849 21.9319 9.15355 21.8015C9.1386 21.6711 9.09805 21.5449 9.03422 21.4302L8.75322 20.9302L12.4412 19.9602C12.4712 19.9532 12.5032 19.9412 12.5342 19.9302C13.3082 19.6602 13.9292 19.1992 14.3162 18.5552C14.627 18.0277 14.7585 17.4137 14.6912 16.8052C14.9832 17.1212 15.3582 17.3832 15.7842 17.5552C16.326 17.7744 16.9204 17.8289 17.493 17.7118C18.0656 17.5948 18.5909 17.3114 19.0032 16.8972V21.9922C19.0032 24.7652 16.7762 26.9922 14.0032 26.9922H8.72222C6.52222 26.9922 4.58922 25.5622 3.94122 23.4612L3.19122 20.9612C3.10822 20.6912 2.94422 19.7462 3.06522 19.0542C3.25322 17.9802 3.72222 17.5662 4.15922 17.3042C4.59722 17.0432 4.90922 17.0242 4.90922 17.0242H4.97222L11.4092 16.1792C11.4412 16.1722 11.4722 16.1592 11.5032 16.1482Z" fill="black"/>
</svg>
