<svg xmlns="http://www.w3.org/2000/svg" width="127" height="168" fill="none"><g filter="url(#a)"><path fill="#D83296" d="m46 144-6-3c-15-9-24-21-24-38V55c0-13 4-16 16-14 2-16 4-18 17-16 1-5 4-10 11-9 6 1 9 5 10 11h5c6 0 11 3 11 10v25c6-2 10-8 16-1v42c0 17-9 28-23 37l-7 4H46ZM69 38v30l2 11h-9c1-3 3-5 3-8l1-44c0-4-3-7-7-7s-6 2-6 7v35l2 15H45l4-7V35c-1-4-2-8-6-7-3 1-6 5-6 7v27c0 6-2 13 3 19H29c1-3 3-5 3-8V52c0-4-2-8-6-7-4 0-7 3-7 8l1 50c0 20 17 36 37 38 19 1 39-14 41-33V62c-6 1-10 4-11 10l-1 16c0 4-2 6-5 7-11 2-17 9-19 19l-3 6c-2-15 4-23 23-30V37c0-2-4-4-6-7l-7 8Z"/></g><defs><filter id="a" width="126.1" height="168" x="0" y="0" color-interpolation-filters="sRGB" filterUnits="userSpaceOnUse"><feFlood flood-opacity="0" result="BackgroundImageFix"/><feColorMatrix in="SourceAlpha" result="hardAlpha" values="0 0 0 0 0 0 0 0 0 0 0 0 0 0 0 0 0 0 127 0"/><feOffset dx="4" dy="4"/><feGaussianBlur stdDeviation="10"/><feComposite in2="hardAlpha" operator="out"/><feColorMatrix values="0 0 0 0 0.917647 0 0 0 0 0.211765 0 0 0 0 0.619608 0 0 0 1 0"/><feBlend in2="BackgroundImageFix" result="effect1_dropShadow_2_53"/><feBlend in="SourceGraphic" in2="effect1_dropShadow_2_53" result="shape"/></filter></defs></svg>