<svg xmlns="http://www.w3.org/2000/svg" width="87" height="128" fill="none"><path fill="#D83296" d="m30 128-6-3C9 116 0 104 0 87V39c0-13 4-16 16-14C18 9 20 7 33 9c1-5 4-10 11-9 6 1 9 5 10 11h5c6 0 11 3 11 10v25c6-2 10-8 16-1v42c0 17-9 28-23 37l-7 4H30ZM53 22v30l2 11h-9c1-3 3-5 3-8l1-44c0-4-3-7-7-7s-6 2-6 7v35l2 15H29l4-7V19c-1-4-2-8-6-7-3 1-6 5-6 7v27c0 6-2 13 3 19H13c1-3 3-5 3-8V36c0-4-2-8-6-7-4 0-7 3-7 8l1 50c0 20 17 36 37 38 19 1 39-14 41-33V46c-6 1-10 4-11 10l-1 16c0 4-2 6-5 7-11 2-17 9-19 19l-3 6c-2-15 4-23 23-30V21c0-2-4-4-6-7l-7 8Z"/></svg>