<svg width="69" height="99" viewBox="0 0 69 99" fill="none" xmlns="http://www.w3.org/2000/svg">
<path d="M2.99723 18.4556C6.81249 12.9549 11.0985 8.73539 16.2405 5.88309C21.3764 3.03416 27.4547 1.5 34.9311 1.5C42.739 1.5 50.859 4.56678 57.0162 9.67146C63.1668 14.7706 67.2481 21.8016 67.248 29.7C67.248 35.0141 65.825 38.9442 63.7372 42.0029C61.6328 45.0859 58.7994 47.3621 55.86 49.274C54.4214 50.2098 52.9789 51.045 51.587 51.851L51.4942 51.9047C50.0905 52.7176 48.7194 53.5135 47.5328 54.3252C45.2447 55.8905 43.1078 57.8606 43.1078 60.7587V61.875C43.1078 63.6143 41.7039 65.0156 39.9828 65.0156H26.017C24.2959 65.0156 22.892 63.6143 22.892 61.875V59.9824C22.892 49.2001 30.7625 44.7763 37.6348 40.9134C37.7526 40.8472 37.87 40.7812 37.9871 40.7153C40.8795 39.0883 43.4063 37.6203 45.1898 35.9596C47.0486 34.2287 48.1931 32.2035 48.1931 29.515C48.1931 25.9335 45.9149 23.1289 43.1047 21.2969C40.2836 19.4579 36.683 18.4183 33.4317 18.4183C29.3972 18.4183 26.3201 19.3626 23.6067 21.1766C20.9528 22.9507 18.7258 25.5091 16.3098 28.5459L17.4837 29.4798L16.3098 28.5459C15.2523 29.8753 13.3329 30.1144 11.9838 29.088C11.9838 29.088 11.9838 29.088 11.9838 29.088L3.67076 22.7635C2.33386 21.7463 2.03332 19.8453 2.99723 18.4556ZM21.1509 85.606C21.1509 79.0441 26.4725 73.7118 33 73.7118C39.5275 73.7118 44.8491 79.0439 44.8491 85.6058C44.8491 92.1677 39.5275 97.5 33 97.5C26.4725 97.5 21.1509 92.1677 21.1509 85.606Z" stroke="#2EB4F8" stroke-width="3"/>
</svg>
