<svg xmlns="http://www.w3.org/2000/svg" width="108" height="129" fill="none"><path fill="#2BA9EC" d="m101 10-5-2c-8 2-16 1-23-3-3-1-8 1-12 2-12-9-15-9-26 0-15-5-21-2-24 12l-2 5c-9 5-8 13-8 22 0 13-1 27 1 40 4 24 26 42 49 42 33 0 55-20 56-53V22c0-4-4-8-6-12Zm-2 38c-8 4-13 1-13-8V23c0-3 3-6 6-10 3 2 9 4 9 6 1 9 0 18-2 29ZM6 66V34c3-1 5-4 8-4l55-1c-1 11-8 17-19 17l-28 2c10 5 19 8 24 14 6 6 9 15 14 24 4-11-3-19-7-29h11c4 0 9 2 11 1 9-7 18-2 28-3l-1 27c-4 25-25 41-53 40-21 0-40-19-43-44V66Zm57-43c-3-6 0-11 6-13 7-2 11 3 11 10l-1 26c-1 3-4 6-7 7-2 1-5-2-8-3l9-13c5-9 2-13-10-14Zm-24-6c0-6 2-11 10-11 6 0 8 6 7 18-5-4-13 5-17-7Zm-7-3 1 11-16-4 2-9c4-1 8 0 13 2Z"/></svg>