<svg width="160" height="175" viewBox="0 0 148 169" fill="none" xmlns="http://www.w3.org/2000/svg">
<g filter="url(#filter0_d_2_68)">
<path d="M27.4965 25.6737C29.501 24.9017 31.0599 23.7581 32.2402 24.066C40.381 26.1892 47.6351 24.7034 55.1775 20.9487C58.0696 19.5091 62.8484 21.8596 67.3701 22.5788C79.1692 13.8322 81.9742 13.7964 93.3656 22.7502C107.796 17.6487 113.586 20.7617 117.205 35.439C117.613 37.096 118.168 39.409 119.385 40.0642C128.521 44.9854 127.518 53.4633 127.305 61.6401C126.954 75.1011 127.62 88.7209 125.766 101.981C122.447 125.715 100.493 143.726 76.5865 144.021C44.3287 144.419 22.1872 123.828 21.0089 91.4819C20.3588 73.6349 20.5593 55.7313 21.1959 37.8825C21.3398 33.8505 24.8923 29.9401 27.4965 25.6737ZM28.5933 63.5423C37.36 67.7551 42.0071 65.2967 42.5025 55.9251C42.7942 50.407 43.2214 44.7679 42.3912 39.3671C41.8993 36.1672 39.078 33.3255 36.432 29.3871C33.0063 31.2336 26.7692 32.9022 26.6392 34.9572C26.0628 44.072 27.2384 53.2977 28.5933 63.5423ZM122.06 81.9026C121.924 72.4258 121.788 62.9489 121.772 52.6467C121.772 52.6467 121.596 51.8316 121.663 50.4863C119.168 48.8026 116.705 45.7171 114.173 45.6596C95.7913 45.2422 77.3959 45.4353 58.9624 45.4353C60.2754 55.894 66.9069 61.6949 77.9391 62.4123C86.6916 62.9815 95.4425 63.5756 106.078 64.2841C96.2832 69.4587 87.3241 72.0391 81.5854 77.8176C75.6272 83.8171 72.7852 92.9112 67.8349 102.024C63.9555 90.7089 70.7273 82.8193 75.4152 72.8344C70.7472 72.8344 67.3895 72.6686 64.0555 72.8788C60.3762 73.1109 55.3226 75.4355 53.2921 73.8135C44.2693 66.6061 35.0521 72.4437 24.8057 71.2041C25.3712 80.8447 25.3365 89.6382 26.4974 98.2709C29.8669 123.326 50.6594 139.069 78.7547 138.355C100.326 137.807 119.409 118.852 121.835 94.2637C121.806 90.6864 121.776 87.1091 122.06 81.9026ZM64.5819 39.3542C67.5551 32.7867 65.5292 27.6151 58.8139 26.0679C51.8784 24.47 48.416 29.4503 48.2889 35.7279C48.1123 44.4421 48.4144 53.2377 49.5372 61.865C49.8958 64.6205 53.1006 68.2251 55.767 69.0921C58.0884 69.847 61.4862 67.2916 64.3462 66.2222C60.5631 60.9436 57.1566 57.2312 54.9578 52.905C50.4294 43.9953 52.7754 40.4546 64.5819 39.3542ZM88.6172 33.3939C89.0875 26.6781 87.1867 21.5085 79.3702 21.7248C73.2521 21.8942 70.5935 28.2058 71.9894 40.0473C77.1883 36.2326 84.8708 45.2741 88.6172 33.3939ZM96.3616 29.6531C95.9536 32.6149 95.5457 35.5767 94.8056 40.9502C101.541 39.1806 106.501 37.8774 111.462 36.5741C110.586 33.6718 110.356 28.8222 108.701 28.2739C105.29 27.1441 101.118 28.3108 96.3616 29.6531Z" fill="#2BA9EC"/>
</g>
<defs>
<filter id="filter0_d_2_68" x="0.609131" y="0.0267334" width="146.835" height="168" filterUnits="userSpaceOnUse" color-interpolation-filters="sRGB">
<feFlood flood-opacity="0" result="BackgroundImageFix"/>
<feColorMatrix in="SourceAlpha" type="matrix" values="0 0 0 0 0 0 0 0 0 0 0 0 0 0 0 0 0 0 127 0" result="hardAlpha"/>
<feOffset dy="4"/>
<feGaussianBlur stdDeviation="10"/>
<feComposite in2="hardAlpha" operator="out"/>
<feColorMatrix type="matrix" values="0 0 0 0 0.180392 0 0 0 0 0.705882 0 0 0 0 0.972549 0 0 0 0.8 0"/>
<feBlend mode="normal" in2="BackgroundImageFix" result="effect1_dropShadow_2_68"/>
<feBlend mode="normal" in="SourceGraphic" in2="effect1_dropShadow_2_68" result="shape"/>
</filter>
</defs>
</svg>
