<svg xmlns="http://www.w3.org/2000/svg" width="87" height="128" fill="none"><path fill="#2BA6E8" d="m86 81-2 16c-5 18-22 31-41 31h-7A42 42 0 0 1 0 88V59c0-7 4-10 11-9l9-3c3-2 8-2 13-3V12c0-8 3-12 10-12 6 0 10 5 10 12l1 23 5-18c3-6 7-9 12-8 7 2 9 6 7 14l-4 18 11 4 1 7v29Zm-4-32v-1l-3-2c-6 2-9 6-9 12l-1 14c0 4-2 6-6 7-10 2-15 8-18 17l-2 7c-6-9 3-22 20-29l8-37 4-17c0-2-2-6-4-6l-7 3-1 3-8 30v12H45l3-7V9c0-2-3-5-5-5s-5 3-6 5v5l-1 60c-1 8-7 11-15 8l-5-1-12 3c0-1 0 0 0 0-1 20 15 38 34 40 21 2 40-11 43-32l1-43ZM20 70c0 5 1 9 6 9 6 0 6-4 6-8l1-16c-1-4-3-7-7-6-4 0-6 3-6 7v14Zm-4-4-1-7c-1-2-4-6-5-5-2 0-5 3-6 5v15l6 5 5-5 1-8Z"/></svg>